<?xml version="1.0" standalone="no"?>
<!DOCTYPE svg PUBLIC "-//W3C//DTD SVG 20010904//EN"
 "http://www.w3.org/TR/2001/REC-SVG-20010904/DTD/svg10.dtd">
<svg version="1.0" xmlns="http://www.w3.org/2000/svg"
 width="2554.000000pt" height="3408.000000pt" viewBox="0 0 2554.000000 3408.000000"
 preserveAspectRatio="xMidYMid meet">
<metadata>
Created by potrace 1.16, written by Peter Selinger 2001-2019
</metadata>
<g transform="translate(0.000000,3408.000000) scale(0.100000,-0.100000)"
fill="#000000" stroke="none">
<path d="M0 17040 l0 -17040 6910 0 c4269 0 6910 4 6910 9 0 5 108 625 240
1378 271 1537 3171 18046 3796 21603 222 1268 463 2636 534 3040 71 404 217
1237 325 1850 108 613 218 1241 245 1395 57 324 649 3693 679 3865 11 63 52
295 90 515 39 220 71 403 71 407 0 4 120 9 268 11 147 1 -4308 3 -9900 5
l-10168 2 0 -17040z"/>
</g>
</svg>
